{"title":"Asa Akira and Tia Ling - Anal Delights","uid":7138849,"size":545367514,"categoryP":"porn","categoryS":"movie_clips","magnet":"?xt=urn:btih:d5889dfaf7156e51cde640493f3e056e5586c40d&amp;dn=Asa+Akira+and+Tia+Ling+-+Anal+Delights&amp;tr=udp%3A%2F%2Ftracker.openbittorrent.com%3A80&amp;tr=udp%3A%2F%2Fopen.demonii.com%3A1337&amp;tr=udp%3A%2F%2Ftracker.coppersurfer.tk%3A6969&amp;tr=udp%3A%2F%2Fexodus.desync.com%3A6969","seeders":0,"leechers":1,"uploader":"tigris1968","files":2,"time":1332894955,"description":"Asa Akira and Tia Ling - Anal Delights\n &lt;a href=&quot;\nhttp://bayimg.com/bAnacaAdK&quot; rel=&quot;nofollow&quot; target=&quot;_NEW&quot;&gt;\nhttp://bayimg.com/bAnacaAdK&lt;/a&gt;\n\nFile Name : Asa Akira and Tia Ling - Anal Delights\n\nFile Size :   54 ' 16 ''\n\nResolution : 720   *  480    avi\n\nMB :  519 MB\n\n                                  info\n\nGeneral\nComplete name                    : C:Downloads 2Asa Akira and Tia Ling - Anal DelightsAsa Akira and Tia Ling - Anal Delights.avi\nFormat                           : AVI\nFormat/Info                      : Audio Video Interleave\nFile size                        : 520 MiB\nDuration                         : 54mn 16s\nOverall bit rate                 : 1 340 Kbps\nWriting application              : MEncoder SVN-r30881(20100311-gcc4.3.3)\nWriting library                  : MPlayer\n\nVideo\nID                               : 0\nFormat                           : MPEG-4 Visual\nFormat profile                   : Advanced Simple@L5\nFormat settings, BVOP            : 2\nFormat settings, QPel            : No\nFormat settings, GMC             : No warppoints\nFormat settings, Matrix          : Default (H.263)\nCodec ID                         : XVID\nCodec ID/Hint                    : XviD\nDuration                         : 54mn 16s\nBit rate                         : 1 199 Kbps\nWidth                            : 720 pixels\nHeight                           : 480 pixels\nDisplay aspect ratio             : 3:2\nFrame rate                       : 25.000 fps\nStandard                         : NTSC\nColor space                      : YUV\nChroma subsampling               : 4:2:0\nBit depth                        : 8 bits\nScan type                        : Progressive\nCompression mode                 : Lossy\nBits/(Pixel*Frame)               : 0.139\nStream size                      : 466 MiB (90%)\nWriting library                  : XviD 1.2.1 (UTC 2008-12-04)\n\nAudio\nID                               : 1\nFormat                           : MPEG Audio\nFormat version                   : Version 1\nFormat profile                   : Layer 3\nMode                             : Joint stereo\nMode extension                   : MS Stereo\nCodec ID                         : 55\nCodec ID/Hint                    : MP3\nDuration                         : 54mn 16s\nBit rate mode                    : Constant\nBit rate                         : 128 Kbps\nChannel(s)                       : 2 channels\nSampling rate                    : 44.1 KHz\nCompression mode                 : Lossy\nDelay relative to video          : 40ms\nStream size                      : 49.7 MiB (10%)\nAlignment                        : Aligned on interleaves\nInterleave, duration             : 26 ms (0.65 video frame)\nInterleave, preload duration     : 522 ms\n\n","torrent":{"xt":"urn:btih:d5889dfaf7156e51cde640493f3e056e5586c40d","amp;dn":"Asa+Akira+and+Tia+Ling+-+Anal+Delights","amp;tr":["udp%3A%2F%2Ftracker.openbittorrent.com%3A80","udp%3A%2F%2Fopen.demonii.com%3A1337","udp%3A%2F%2Ftracker.coppersurfer.tk%3A6969","udp%3A%2F%2Fexodus.desync.com%3A6969"],"infoHash":"d5889dfaf7156e51cde640493f3e056e5586c40d","infoHashBuffer":{"type":"Buffer","data":[213,136,157,250,247,21,110,81,205,230,64,73,63,62,5,110,85,134,196,13]},"announce":[],"urlList":[]}}